<svg xmlns="http://www.w3.org/2000/svg" width="116" height="72" fill="none">
  <path fill="#fff" d="M0 0h116v72H0z" />
  <path fill="#F07800"
    d="M19.063 24.795C22.885 18.377 30.003 14 38.793 14c13.373 0 22.733 10.033 22.733 22 0 11.907-9.36 22-22.733 22-8.669 0-15.71-4.283-19.57-10.558l27.127-1.804v-.675L17.157 43.03A21.929 21.929 0 0 1 16 36c0-2.658.47-5.22 1.345-7.6l13.83-1.552v-.675l-12.112-1.377ZM80.685 26.029l-18.6 21.94v9.186h37.363V45.974h-19.51l18.539-22v-9.126H63.1v11.18h17.584Z" />
  <mask id="a" width="38" height="44" x="62" y="14" maskUnits="userSpaceOnUse"
    style="mask-type:alpha">
    <path fill="#F07800"
      d="m80.685 26.029-18.6 21.94v9.186h37.363V45.974h-19.51l18.539-22v-9.126H63.1v11.18h17.584Z" />
  </mask>
  <g mask="url(#a)">
    <path fill="#600" fill-opacity=".2"
      d="m82.1 5.188-.518-.172-.11-.02c-.19-.03-.457-.073-.564-.17a9.913 9.913 0 0 1 1.59 1.915c.41.645.283 1.63-.61 1.741-.812.102-1.427-.378-1.992-.82a11.41 11.41 0 0 0-2.566-1.54c.103.181.22.369.342.562.503.8 1.07 1.7.887 2.616-.322 1.6-2.2 1.875-3.506 1.644-1.949-.343-3.597-1.545-5.174-2.696-.197-.143-.392-.286-.587-.426.087.184.201.39.322.607.322.581.69 1.246.724 1.802.006.31-.053.62-.173.906-.121.283-.3.538-.522.75-1.498.94-3.515.87-5.288.806-.287-.01-.568-.02-.839-.025.503.26 1.009.517 1.515.774.738.375 1.478.75 2.207 1.137 1.228.652 2.944 2.193 1.974 3.65-.343.456-.77.841-1.258 1.137a28.084 28.084 0 0 1 5.474.159 6.4 6.4 0 0 1 1.92.508c1.72.88.365 2.53-.452 3.524l-.077.094a6.609 6.609 0 0 1 1.116-.309c.14-.05.281-.105.422-.159.257-.1.516-.2.782-.276.88-.202 1.771-.344 2.669-.427l.261-.043c.76-.128 1.752-.296 2.365.116 1.387.932.919 2.709.56 4.07l-.042.161c.55-.392 1.085-.809 1.62-1.225.69-.539 1.38-1.076 2.1-1.558l.306-.194c.215-.137.43-.272.642-.409-.29.515-.572 1.031-.845 1.548a.179.179 0 0 0 .215.248 2.522 2.522 0 0 0 1.177-.867 4.77 4.77 0 0 1 1.353-.899.79.79 0 0 1 .763-.026.57.57 0 0 1 .22.428c0 .164-.025.328-.074.484a14.609 14.609 0 0 1-1.362 3.24 27.323 27.323 0 0 1-4.287 5.34.238.238 0 0 0 .259.38c.833-.245 1.495-.691 2.175-1.15.287-.193.577-.388.884-.572.837-.53 2.027-1.089 3.022-.608.995.48 1.337 1.918 1.381 2.961.148 2.99-1.112 5.831-2.298 8.506l-.034.076a.238.238 0 0 0 .386.26c.305-.305.6-.63.897-.958.716-.79 1.442-1.589 2.33-2.148 1.788-1.12 3.722-.843 4.841.982.834 1.33.955 2.876 1.077 4.428.096 1.228.193 2.46.642 3.59.068.2.422.22.451-.025l.015-.13c.276-2.354.551-4.7.991-7.034a15.74 15.74 0 0 1 .828-3.444c1.032-2.294 3.079-1.184 4.449.083a.264.264 0 0 0 .394-.34c-.422-.58-.938-1.106-1.455-1.632-.825-.84-1.651-1.68-2.097-2.746a2.965 2.965 0 0 1 .134-2.961c1.013-1.293 2.905-1.021 4.293-.819a.297.297 0 0 0 .3-.13.293.293 0 0 0-.088-.405.288.288 0 0 0-.106-.043 37.253 37.253 0 0 1-3.112-1.985c-.163-.117-.318-.24-.472-.36-.22-.174-.439-.346-.68-.506a4.907 4.907 0 0 1-1.243-1.199 1.74 1.74 0 0 1-.41-1.08 1.234 1.234 0 0 1 .911-1.057c.644-.18 1.368.154 1.997.445.122.056.24.111.353.16a.274.274 0 0 0 .207.014.267.267 0 0 0 .156-.136.278.278 0 0 0 .028-.101.286.286 0 0 0-.066-.197.278.278 0 0 0-.084-.064 92.683 92.683 0 0 0-3.842-2.193 98.128 98.128 0 0 0-2.5-1.265c1.004-1.617 1.129-3.697.147-5.452-1.45-2.59-4.762-3.493-7.398-2.017a5.54 5.54 0 0 0-1.552 1.286 18.876 18.876 0 0 0-3.076-4.274 14.927 14.927 0 0 0-5.088-3.587c-.102-.04-.212-.086-.326-.134-.098-.041-.198-.084-.3-.125Z" />
  </g>
  <path fill="url(#b)"
    d="m87.1 3.189-.518-.173c-.176-.034-.553-.072-.679-.193a9.916 9.916 0 0 1 1.595 1.918c.41.645.283 1.63-.61 1.741-.893.113-1.548-.48-2.16-.951a11.41 11.41 0 0 0-2.398-1.409c.527.927 1.456 2.04 1.229 3.178-.322 1.6-2.2 1.875-3.505 1.644-2.193-.385-4.004-1.858-5.762-3.122.32.674 1 1.645 1.046 2.41.006.31-.053.618-.173.905-.121.283-.3.539-.522.75-1.74 1.093-4.181.82-6.127.78 1.238.642 2.494 1.26 3.722 1.912 1.228.652 2.944 2.193 1.974 3.65-.343.456-.77.841-1.258 1.137a28.076 28.076 0 0 1 5.474.159c.663.069 1.31.24 1.92.508 1.776.908.275 2.637-.529 3.618a6.592 6.592 0 0 1 1.116-.309c.399-.142.792-.316 1.204-.435.88-.202 1.771-.344 2.669-.427.777-.123 1.94-.389 2.626.073 1.442.97.879 2.852.518 4.231 1.263-.9 2.442-1.929 3.72-2.783.698-.444 1.392-.874 2.037-1.332.331-.23.673-.48.99-.698.318-.217.665-.675.963-.758 1.976-1.673 2.063-3.507 1.163-5.834a18.882 18.882 0 0 0-4.01-6.345 14.927 14.927 0 0 0-5.088-3.587c-.19-.074-.405-.17-.627-.258Z" />
  <path fill="url(#c)"
    d="M68.637 10.73c.463.24.928.476 1.394.712.739.375 1.478.75 2.207 1.137 1.228.652 2.944 2.193 1.974 3.65-.343.456-.77.841-1.258 1.137a28.076 28.076 0 0 1 5.474.159 6.4 6.4 0 0 1 1.92.508c1.72.88.365 2.53-.452 3.524l-.077.094a6.599 6.599 0 0 1 1.116-.309c.14-.05.281-.104.422-.159.257-.1.516-.2.782-.276.88-.202 1.771-.344 2.669-.427l.261-.043c.76-.128 1.752-.296 2.365.116 1.387.932.919 2.709.56 4.07l-.042.161c.55-.392 1.085-.809 1.62-1.225.69-.539 1.38-1.076 2.1-1.558l.306-.194a39.379 39.379 0 0 0 2.18-1.455c.184-.13.367-.26.542-.38.125-.086.254-.209.382-.33.2-.19.399-.379.58-.428 1.358-1.15 1.824-2.377 1.69-3.787-13.68-.662-23.16-2.8-28.715-4.697Z" />
  <path fill="url(#d)"
    d="M113.451 27.015a37.278 37.278 0 0 1-3.112-1.985c-.395-.285-.741-.593-1.152-.866a4.905 4.905 0 0 1-1.243-1.198 1.741 1.741 0 0 1-.41-1.08 1.235 1.235 0 0 1 .911-1.058c.769-.215 1.651.303 2.35.605a.274.274 0 0 0 .207.014.267.267 0 0 0 .156-.136.278.278 0 0 0 .028-.101.286.286 0 0 0-.066-.197.28.28 0 0 0-.084-.064 93.186 93.186 0 0 0-3.841-2.193 97.425 97.425 0 0 0-5.077-2.475c-.866-.406-1.734-.755-2.603-1.111-.434-.175-.879-.36-1.315-.52a2.636 2.636 0 0 0-1.03-.254c-.321.059-.41.478-.585.704-.247.34-.467.679-.717 1.034-.495.743-.981 1.49-1.451 2.246a71.86 71.86 0 0 0-2.642 4.566.178.178 0 0 0 .215.248 2.523 2.523 0 0 0 1.177-.867 4.767 4.767 0 0 1 1.353-.899.79.79 0 0 1 .763-.025.567.567 0 0 1 .22.427c0 .164-.025.328-.074.484a14.615 14.615 0 0 1-1.362 3.24 27.327 27.327 0 0 1-4.287 5.34.238.238 0 0 0 .259.38c1.183-.349 2.022-1.103 3.06-1.721.836-.531 2.026-1.09 3.02-.609.996.48 1.338 1.918 1.382 2.961.15 3.02-1.136 5.885-2.332 8.582a.238.238 0 0 0 .241.328.237.237 0 0 0 .145-.067c1.04-1.045 1.97-2.316 3.228-3.106 1.786-1.12 3.722-.844 4.84.98 1.493 2.382.702 5.458 1.719 8.02.068.2.422.22.451-.026.281-2.398.558-4.787 1.007-7.164.145-1.176.422-2.33.827-3.444 1.032-2.294 3.079-1.184 4.449.083a.264.264 0 0 0 .394-.34c-1.095-1.506-2.826-2.645-3.552-4.378a2.965 2.965 0 0 1 .134-2.961c1.013-1.293 2.905-1.021 4.293-.819a.297.297 0 0 0 .3-.13.293.293 0 0 0-.088-.405.288.288 0 0 0-.106-.043Z" />
  <path fill="url(#e)"
    d="M105.98 45.034c-.702-12.742-4.504-23.485-8.025-30.486.083.03.165.064.245.102.34.124.684.264 1.024.402l.29.118.226.092c.794.324 1.587.648 2.378 1.019a97.508 97.508 0 0 1 5.077 2.475c1.297.7 2.579 1.433 3.841 2.193a.27.27 0 0 1 .057.446.267.267 0 0 1-.298.038c-.113-.049-.231-.103-.353-.16-.629-.29-1.353-.625-1.997-.444a1.234 1.234 0 0 0-.911 1.056c.01.397.154.778.41 1.08.34.47.761.876 1.243 1.199.241.16.46.333.68.505.154.122.309.244.472.362a37.278 37.278 0 0 0 3.112 1.984.288.288 0 0 1 .188.122.291.291 0 0 1-.074.41.293.293 0 0 1-.22.046c-1.388-.202-3.28-.474-4.293.82a2.965 2.965 0 0 0-.134 2.96c.446 1.065 1.272 1.906 2.097 2.746.517.526 1.033 1.051 1.455 1.631a.265.265 0 0 1-.223.402.264.264 0 0 1-.171-.061c-1.37-1.267-3.417-2.377-4.449-.083a15.739 15.739 0 0 0-.827 3.444c-.35 1.854-.596 3.715-.82 5.582Z" />
  <path fill="url(#f)" d="M91.211 12.536a3.664 3.664 0 1 1 3.58 6.395 3.664 3.664 0 0 1-3.58-6.395Z" />
  <path fill="url(#g)"
    d="M97.443 10.022c2.636-1.476 5.948-.573 7.397 2.017 1.45 2.59.489 5.885-2.147 7.36-2.636 1.476-5.948.573-7.398-2.016-1.45-2.59-.488-5.885 2.148-7.361Z" />
  <path fill="url(#h)" d="M100.261 18.01a2.683 2.683 0 1 1 2.62 4.681 2.683 2.683 0 0 1-2.62-4.682Z" />
  <defs>
    <linearGradient id="b" x1="80.542" x2="95.542" y1="9.5" y2="14.5" gradientUnits="userSpaceOnUse">
      <stop stop-color="#18935F" />
      <stop offset="1" stop-color="#005E36" />
    </linearGradient>
    <linearGradient id="c" x1="79.542" x2="85.323" y1="19.5" y2="12.617"
      gradientUnits="userSpaceOnUse">
      <stop stop-color="#18935F" />
      <stop offset=".661" stop-color="#005E36" />
      <stop offset="1" stop-color="#003E24" />
    </linearGradient>
    <linearGradient id="d" x1="94.042" x2="104.801" y1="41" y2="27.483"
      gradientUnits="userSpaceOnUse">
      <stop stop-color="#18935F" />
      <stop offset=".68" stop-color="#005E36" />
      <stop offset="1" stop-color="#00351F" />
    </linearGradient>
    <linearGradient id="e" x1="110.042" x2="108.465" y1="41.5" y2="17.022"
      gradientUnits="userSpaceOnUse">
      <stop stop-color="#18935F" />
      <stop offset=".641" stop-color="#005E36" />
      <stop offset="1" stop-color="#002817" />
    </linearGradient>
    <radialGradient id="f" cx="0" cy="0" r="1"
      gradientTransform="matrix(1.3837 5.10274 -4.93613 1.33852 92.297 13.887)"
      gradientUnits="userSpaceOnUse">
      <stop stop-color="#FF8F77" />
      <stop offset=".229" stop-color="#EA2A00" />
      <stop offset="1" stop-color="#731500" />
    </radialGradient>
    <radialGradient id="g" cx="0" cy="0" r="1"
      gradientTransform="matrix(2 7.5 -7.36871 1.96499 99.041 12)" gradientUnits="userSpaceOnUse">
      <stop stop-color="#FFD9D0" />
      <stop offset=".396" stop-color="#EE2B00" />
      <stop offset="1" stop-color="#861800" />
    </radialGradient>
    <radialGradient id="h" cx="0" cy="0" r="1"
      gradientTransform="matrix(1.01284 3.73512 -3.61316 .97977 101.056 18.999)"
      gradientUnits="userSpaceOnUse">
      <stop stop-color="#FF8F77" />
      <stop offset=".229" stop-color="#EA2A00" />
      <stop offset="1" stop-color="#731500" />
    </radialGradient>
  </defs>
</svg>